<svg width="625" height="106" viewBox="0 0 625 106" fill="none" xmlns="http://www.w3.org/2000/svg">
<path opacity="0.9" fill-rule="evenodd" clip-rule="evenodd" d="M358.11 0.5V104.5H383.418V64.3283H400.11L418.418 104.5H442.11L418.418 53.6159L438.879 38.4399V17.4614L418.418 0.5H358.11ZM383.418 43.3498V18.8004H400.11L411.956 23.2639V38.4399L400.11 43.3498H383.418Z" fill="#835353" stroke="#835353"/>
<path d="M449.11 0.5V104.5H533.11V81.8724H480.11V60.9854H533.11V38.7929H480.11V21.8222H533.11V0.5H449.11Z" fill="#835353" stroke="#835353"/>
<path d="M540.11 0.5V104.5H624.11V81.8724H571.11V60.9854H624.11V38.7929H571.11V21.8222H624.11V0.5H540.11Z" fill="#835353" stroke="#835353"/>
<path d="M253.11 1.5L231.61 24H201.61C196.297 26.169 193.787 29.1454 194.1 33C194.657 36.6786 197.257 39.3606 201.61 40.5H232.61C240.277 41.593 243.779 43.489 248.61 49C251.864 53.3793 253.37 55.9054 255.61 60.5V84C253.925 89.5566 252.493 92.4456 248.61 97C242.907 101.536 239.369 103.213 232.61 105H168.61V79H222.61C228.33 78.5731 230.727 76.1551 230.671 72.5C231.605 68.3113 228.554 65.1229 222.61 64H193.11C187.711 62.6521 185.028 61.3216 181.11 57.5C175.926 52.7322 173.223 49.4892 168.61 43V22.5C172.382 15.6699 175.114 12.1643 181.11 6.5C185.265 3.67518 187.961 2.68514 193.11 1.5H253.11Z" fill="#298800"/>
<path d="M280.11 1.5L257.61 24H290.61V105H318.61V24H351.11V1.5H280.11Z" fill="#298800"/>
<path d="M100.61 25.5L124.11 1.5H44.6101C33.0501 6.81653 23.5607 12.3977 16.1099 18.167L18.6099 88.6083C25.681 94.1797 34.356 99.6631 44.6101 105H105.11V43H79.6102L62.6102 61H79.6102V80H47.6101C18.9589 69.2641 21.0266 37.6724 47.6101 25.5H100.61Z" fill="#DA4C4C"/>
<path d="M18.6099 88.6083C-4.24333 65.2362 -5.90037 40.3136 16.1099 18.167L18.6099 88.6083Z" fill="#DA4C4C"/>
<path d="M16.1099 18.167C23.5607 12.3977 33.0501 6.81653 44.6101 1.5H124.11L100.61 25.5H47.6101C21.0266 37.6724 18.9589 69.2641 47.6101 80H79.6102V61H62.6102L79.6102 43H105.11V105H44.6101C34.356 99.6631 25.681 94.1797 18.6099 88.6083M16.1099 18.167C-5.90037 40.3136 -4.24333 65.2362 18.6099 88.6083M16.1099 18.167L18.6099 88.6083" stroke="#DA4C4C"/>
<path d="M127.11 26V105H153.61V1.5L127.11 26Z" fill="#298800"/>
</svg>
