<svg width="49" height="49" viewBox="0 0 49 49" fill="none" xmlns="http://www.w3.org/2000/svg">
<path d="M44.1875 26.9062C44.1875 39.1083 34.2958 49 22.0938 49C9.89171 49 0 39.1083 0 26.9062C0 14.7042 9.89171 4.8125 22.0938 4.8125C34.2958 4.8125 44.1875 14.7042 44.1875 26.9062Z" fill="#FFB01D"/>
<mask id="mask0_124_533" style="mask-type:alpha" maskUnits="userSpaceOnUse" x="4" y="0" width="45" height="45">
<path d="M48.5625 22.0938C48.5625 34.2958 38.6708 44.1875 26.4688 44.1875C14.2667 44.1875 4.375 34.2958 4.375 22.0938C4.375 9.89171 14.2667 0 26.4688 0C38.6708 0 48.5625 9.89171 48.5625 22.0938Z" fill="#EB4B3F"/>
</mask>
<g mask="url(#mask0_124_533)">
<path d="M44.1875 26.9062C44.1875 39.1083 34.2958 49 22.0938 49C9.89171 49 0 39.1083 0 26.9062C0 14.7042 9.89171 4.8125 22.0938 4.8125C34.2958 4.8125 44.1875 14.7042 44.1875 26.9062Z" fill="#FFC559"/>
</g>
</svg>
