<svg width="832" height="579" viewBox="0 0 832 579" fill="none" xmlns="http://www.w3.org/2000/svg">
<g clip-path="url(#clip0_206_1163)">
<rect width="832" height="579" fill="#ECD4D3"/>
<line x1="-16.3385" y1="45.7548" x2="51.6615" y2="-3.24523" stroke="#037B1E" stroke-width="8"/>
<line x1="-16.3076" y1="97.7328" x2="126.692" y2="-3.26723" stroke="#037B1E" stroke-width="8"/>
<line x1="-16.3105" y1="203.359" x2="275.689" y2="-3.2652" stroke="#037B1E" stroke-width="8"/>
<line y1="-4" x2="447.091" y2="-4" transform="matrix(0.811916 -0.583774 0.570041 0.821616 -14 261)" stroke="#037B1E" stroke-width="8"/>
<line x1="-16.3041" y1="360.354" x2="499.696" y2="-3.2697" stroke="#037B1E" stroke-width="8"/>
<line x1="-16.3098" y1="414.734" x2="574.69" y2="-3.2657" stroke="#037B1E" stroke-width="8"/>
<line x1="387.692" y1="603.733" x2="850.692" y2="276.733" stroke="#037B1E" stroke-width="8"/>
<line x1="313.685" y1="603.738" x2="850.685" y2="222.738" stroke="#037B1E" stroke-width="8"/>
<line x1="-19.3093" y1="521.358" x2="722.691" y2="-3.2661" stroke="#037B1E" stroke-width="8"/>
<line x1="-19.3185" y1="575.74" x2="794.681" y2="-3.25953" stroke="#037B1E" stroke-width="8"/>
<line x1="92.682" y1="603.74" x2="850.682" y2="64.7401" stroke="#037B1E" stroke-width="8"/>
<line x1="164.688" y1="603.736" x2="850.688" y2="117.736" stroke="#037B1E" stroke-width="8"/>
<line x1="769.698" y1="592.729" x2="850.698" y2="535.729" stroke="#037B1E" stroke-width="8"/>
<line x1="677.342" y1="609.749" x2="861.342" y2="477.749" stroke="#FFA7A7" stroke-width="40"/>
<line x1="677.342" y1="609.749" x2="861.342" y2="477.749" stroke="#B80002" stroke-width="40"/>
<line x1="452.458" y1="609.666" x2="861.458" y2="320.666" stroke="#FFA7A7" stroke-width="40"/>
<line x1="452.458" y1="609.666" x2="861.458" y2="320.666" stroke="#B80002" stroke-width="40"/>
<line x1="232.414" y1="609.697" x2="861.415" y2="162.697" stroke="#FFA7A7" stroke-width="40"/>
<line x1="232.414" y1="609.697" x2="861.415" y2="162.697" stroke="#B80002" stroke-width="40"/>
<line x1="8.37885" y1="609.723" x2="861.379" y2="0.722752" stroke="#FFA7A7" stroke-width="40"/>
<line x1="8.37885" y1="609.723" x2="861.379" y2="0.722752" stroke="#B80002" stroke-width="40"/>
<line x1="-28.6873" y1="477.77" x2="657.313" y2="-16.2298" stroke="#FFA7A7" stroke-width="40"/>
<line x1="-28.6873" y1="477.77" x2="657.313" y2="-16.2298" stroke="#B80002" stroke-width="40"/>
<line x1="-31.9449" y1="330.959" x2="434.055" y2="-16.0412" stroke="#FFA7A7" stroke-width="40"/>
<line x1="-31.9449" y1="330.959" x2="434.055" y2="-16.0412" stroke="#B80002" stroke-width="40"/>
<line x1="-28.6121" y1="157.716" x2="215.388" y2="-16.2837" stroke="#FFA7A7" stroke-width="40"/>
<line x1="-28.6121" y1="157.716" x2="215.388" y2="-16.2837" stroke="#B80002" stroke-width="40"/>
<line x1="619.732" y1="592.705" x2="850.732" y2="433.705" stroke="#037B1E" stroke-width="8"/>
<line x1="553.676" y1="592.744" x2="850.676" y2="380.744" stroke="#037B1E" stroke-width="8"/>
</g>
<defs>
<clipPath id="clip0_206_1163">
<rect width="832" height="579" fill="white"/>
</clipPath>
</defs>
</svg>
