<svg width="479" height="727" viewBox="0 0 479 727" fill="none" xmlns="http://www.w3.org/2000/svg">
<rect x="191" y="564" width="97" height="144" fill="#946033"/>
<rect x="191.431" y="591.562" width="96.1388" height="28.4672" fill="#623E1E"/>
<ellipse cx="239.5" cy="620.029" rx="48.0694" ry="15.3285" fill="#623E1E"/>
<path d="M0 529.062L239.5 255.212L479 529.062C479 566.965 416.602 583.547 395.037 568.86C405.131 593.497 316.58 617.66 298.687 598.709C282.628 627.136 196.372 627.136 180.313 598.709C164.255 619.555 83.9626 593.497 83.9626 568.86C62.3985 583.547 0 557.489 0 529.062Z" fill="#2E6A30"/>
<mask id="mask0_124_558" style="mask-type:alpha" maskUnits="userSpaceOnUse" x="0" y="255" width="479" height="366">
<path d="M0 529.062L239.5 255.212L479 529.062C479 566.965 416.602 583.547 395.037 568.86C405.131 593.497 316.58 617.66 298.687 598.709C282.628 627.136 196.372 627.136 180.313 598.709C164.255 619.555 83.9626 593.497 83.9626 568.86C62.3985 583.547 0 557.489 0 529.062Z" fill="#2E6A30"/>
</mask>
<g mask="url(#mask0_124_558)">
<path d="M33.8813 412.204L239.712 176.818L445.542 412.204C445.542 444.783 391.916 459.037 373.383 446.412C382.058 467.589 305.956 488.358 290.578 472.068C276.777 496.503 202.646 496.503 188.846 472.068C175.045 489.987 106.04 467.589 106.04 446.412C87.5076 459.037 33.8813 436.638 33.8813 412.204Z" fill="#15572E"/>
</g>
<path d="M47.0107 397.081L239.712 176.818L432.413 397.081C432.413 427.567 382.207 440.905 364.857 429.092C372.978 448.908 301.731 468.343 287.333 453.1C274.413 475.964 205.011 475.964 192.09 453.1C179.17 469.867 114.567 448.908 114.567 429.092C97.2164 440.905 47.0107 419.946 47.0107 397.081Z" fill="#358038"/>
<mask id="mask1_124_558" style="mask-type:alpha" maskUnits="userSpaceOnUse" x="47" y="176" width="386" height="295">
<path d="M47.0107 397.081L239.712 176.818L432.413 397.081C432.413 427.567 382.207 440.905 364.857 429.092C372.978 448.908 301.731 468.343 287.333 453.1C274.413 475.964 205.011 475.964 192.09 453.1C179.17 469.867 114.567 448.908 114.567 429.092C97.2164 440.905 47.0107 419.946 47.0107 397.081Z" fill="#358038"/>
</mask>
<g mask="url(#mask1_124_558)">
<path d="M71.9985 306.29L239.5 114.628L407.002 306.29C407.002 332.818 363.362 344.424 348.28 334.144C355.34 351.387 293.409 368.298 280.894 355.035C269.663 374.93 209.337 374.93 198.106 355.035C186.875 369.625 130.72 351.387 130.72 334.144C115.639 344.424 71.9985 326.186 71.9985 306.29Z" fill="#15572E"/>
</g>
<path d="M83.4331 293.14L239.5 114.628L395.567 293.14C395.567 317.847 354.906 328.657 340.854 319.083C347.431 335.143 289.728 350.894 278.068 338.54C267.604 357.071 211.396 357.071 200.932 338.54C190.467 352.129 138.146 335.143 138.146 319.083C124.094 328.657 83.4331 311.67 83.4331 293.14Z" fill="#3D8C40"/>
<mask id="mask2_124_558" style="mask-type:alpha" maskUnits="userSpaceOnUse" x="83" y="114" width="313" height="239">
<path d="M83.4331 293.14L239.5 114.628L395.567 293.14C395.567 317.847 354.906 328.657 340.854 319.083C347.431 335.143 289.728 350.894 278.068 338.54C267.604 357.071 211.396 357.071 200.932 338.54C190.467 352.129 138.146 335.143 138.146 319.083C124.094 328.657 83.4331 311.67 83.4331 293.14Z" fill="#3D8C40"/>
</mask>
<g mask="url(#mask2_124_558)">
<path d="M118.585 190.404L239.711 52L360.838 190.404C360.838 209.561 329.28 217.942 318.374 210.519C323.479 222.97 278.695 235.182 269.645 225.604C261.523 239.971 217.899 239.971 209.778 225.604C201.656 236.14 161.049 222.97 161.049 210.519C150.143 217.942 118.585 204.772 118.585 190.404Z" fill="#2E6A30"/>
</g>
<path d="M129.173 178.569L239.712 52L350.25 178.569C350.25 196.088 321.451 203.752 311.498 196.964C316.157 208.35 275.287 219.518 267.029 210.759C259.617 223.898 219.806 223.898 212.395 210.759C204.983 220.394 167.925 208.35 167.925 196.964C157.973 203.752 129.173 191.708 129.173 178.569Z" fill="#4CAF50"/>
<path d="M288 707.5C288 714.404 266.286 727 239.5 727C212.714 727 191 714.404 191 707.5C191 700.596 212.714 695 239.5 695C266.286 695 288 700.596 288 707.5Z" fill="#946033"/>
<mask id="mask3_124_558" style="mask-type:alpha" maskUnits="userSpaceOnUse" x="106" y="204" width="286" height="101">
<path d="M252.271 216.446C290.89 219.825 324.97 228.158 348.787 238.61C360.744 243.858 369.584 249.41 375.139 254.711C380.783 260.097 381.857 264.01 381.65 266.38C381.443 268.75 379.706 272.417 373.212 276.742C366.821 280.997 357.151 284.93 344.464 288.021C319.194 294.179 284.184 296.468 245.566 293.09C206.948 289.711 172.867 281.377 149.05 270.925C137.093 265.677 128.252 260.125 122.697 254.824C117.053 249.438 115.979 245.525 116.186 243.155C116.394 240.785 118.131 237.118 124.624 232.794C131.016 228.538 140.687 224.605 153.373 221.514C178.643 215.356 213.653 213.067 252.271 216.446Z" stroke="#EB4B3F" stroke-width="20"/>
</mask>
<g mask="url(#mask3_124_558)">
<path d="M126.5 244L164 201H65V316.5H414.5V209H322L371 265L126.5 244Z" fill="#EB4B3F"/>
</g>
<mask id="mask4_124_558" style="mask-type:alpha" maskUnits="userSpaceOnUse" x="106" y="204" width="286" height="101">
<path d="M252.925 208.975C292.132 212.405 327.053 220.883 351.8 231.743C364.186 237.179 373.892 243.154 380.317 249.286C386.765 255.438 389.611 261.441 389.121 267.034C388.632 272.626 384.787 278.044 377.369 282.984C369.977 287.907 359.381 292.106 346.239 295.308C319.981 301.706 284.119 303.991 244.912 300.561C205.705 297.131 170.784 288.653 146.036 277.793C133.65 272.357 123.945 266.382 117.52 260.25C111.072 254.097 108.226 248.094 108.715 242.501C109.204 236.909 113.05 231.491 120.468 226.552C127.86 221.629 138.456 217.43 151.597 214.228C177.855 207.83 213.718 205.544 252.925 208.975Z" stroke="#EB4B3F" stroke-width="5"/>
</mask>
<g mask="url(#mask4_124_558)">
<path d="M126.5 244L123 261.5L103.5 247L65 201V316.5H414.5V209L391.5 266L386 272L381.5 276.5L371 265L126.5 244Z" fill="#B63930"/>
</g>
<mask id="mask5_124_558" style="mask-type:alpha" maskUnits="userSpaceOnUse" x="55" y="322" width="390" height="105">
<path d="M254.618 333.981C307.663 337.543 354.702 346.34 387.808 357.493C404.433 363.093 416.997 369.108 425.021 374.986C433.561 381.242 434.442 385.384 434.272 386.875C434.102 388.366 432.297 392.329 422.472 397.351C413.24 402.07 399.506 406.319 381.867 409.618C346.741 416.188 298.427 418.581 245.382 415.019C192.338 411.457 145.299 402.66 112.193 391.507C95.5679 385.907 83.0032 379.892 74.9786 374.014C66.439 367.759 65.5581 363.616 65.728 362.125C65.8979 360.634 67.7026 356.671 77.5276 351.649C86.76 346.93 100.494 342.681 118.134 339.382C153.26 332.812 201.574 330.419 254.618 333.981Z" stroke="#EB4B3F" stroke-width="20"/>
</mask>
<g mask="url(#mask5_124_558)">
<path d="M77.5 362.5L113 321.5L-0.368164 318.315V439.008H475.407V326.675L372 328L422.5 386L77.5 362.5Z" fill="#EB4B3F"/>
</g>
<mask id="mask6_124_558" style="mask-type:alpha" maskUnits="userSpaceOnUse" x="55" y="322" width="390" height="105">
<path d="M255.468 326.529C308.959 330.122 356.658 339.003 390.518 350.409C407.466 356.119 420.811 362.415 429.673 368.907C438.664 375.493 442.393 381.78 441.755 387.378C441.117 392.975 436.022 398.67 425.678 403.958C415.482 409.169 400.916 413.592 382.933 416.955C347.007 423.675 298.024 426.063 244.533 422.471C191.041 418.878 143.342 409.997 109.482 398.591C92.5339 392.881 79.1893 386.585 70.327 380.093C61.3361 373.507 57.6069 367.22 58.2448 361.622C58.8828 356.025 63.9776 350.33 74.3219 345.042C84.5181 339.831 99.0843 335.408 117.066 332.045C152.993 325.325 201.976 322.937 255.468 326.529Z" stroke="#EB4B3F" stroke-width="5"/>
</mask>
<g mask="url(#mask6_124_558)">
<path d="M83.3519 363.248L78.5874 381.535L52.042 366.383L-0.368164 318.315V439.008H475.407V326.674L444.097 386.237L436.61 392.507L430.484 397.209L416.19 385.192L83.3519 363.248Z" fill="#B63930"/>
</g>
<mask id="mask7_124_558" style="mask-type:alpha" maskUnits="userSpaceOnUse" x="28" y="426" width="445" height="121">
<path d="M255.779 438.83C316.426 442.903 370.257 452.963 408.197 465.744C427.24 472.159 441.733 479.079 451.053 485.906C460.888 493.11 462.432 498.246 462.149 500.724C461.867 503.202 459.185 508.054 447.869 513.838C437.146 519.319 421.308 524.203 401.104 527.983C360.848 535.512 305.56 538.243 244.913 534.17C184.266 530.097 130.435 520.038 92.4944 507.257C73.4519 500.842 58.9594 493.921 49.6393 487.094C39.804 479.889 38.2604 474.754 38.5428 472.276C38.8253 469.797 41.5073 464.946 52.8228 459.162C63.5458 453.68 79.3838 448.797 99.588 445.018C139.844 437.489 195.132 434.757 255.779 438.83Z" stroke="#EB4B3F" stroke-width="20"/>
</mask>
<g mask="url(#mask7_124_558)">
<path d="M49 473L84 433L-35.5068 422.352V560.151H507.701V431.896L402 441L452.5 499.5L451 500.5L446 503.5L49 473Z" fill="#EB4B3F"/>
</g>
<mask id="mask8_124_558" style="mask-type:alpha" maskUnits="userSpaceOnUse" x="28" y="426" width="445" height="121">
<path d="M256.627 431.378C317.721 435.481 372.211 445.624 410.906 458.66C430.271 465.183 445.543 472.387 455.701 479.828C465.988 487.363 470.381 494.642 469.63 501.227C468.88 507.812 462.907 514.395 451.072 520.445C439.385 526.419 422.716 531.476 402.169 535.32C361.113 542.999 305.156 545.725 244.063 541.622C182.969 537.519 128.479 527.376 89.7844 514.34C70.4192 507.817 55.1467 500.614 44.9888 493.173C34.7021 485.638 30.3093 478.358 31.0597 471.773C31.8103 465.188 37.7831 458.606 49.618 452.556C61.3048 446.582 77.9746 441.524 98.5216 437.68C139.577 430.001 195.534 427.275 256.627 431.378Z" stroke="#EB4B3F" stroke-width="5"/>
</mask>
<g mask="url(#mask8_124_558)">
<path d="M60.0785 473.654L54.6387 494.532L24.3311 477.233L-35.5068 422.352V560.151H507.698V431.896L471.95 499.901L463.402 507.06L456.408 512.428L440.088 498.708L60.0785 473.654Z" fill="#B63930"/>
</g>
<mask id="mask9_124_558" style="mask-type:alpha" maskUnits="userSpaceOnUse" x="191" y="11" width="98" height="94">
<path d="M235.245 14.6352C236.741 10.0287 243.259 10.0287 244.755 14.6353L252.797 39.386C253.467 41.4461 255.386 42.8409 257.553 42.8409H283.577C288.421 42.8409 290.435 49.039 286.516 51.886L265.462 67.1829C263.709 68.4561 262.976 70.7129 263.645 72.773L271.687 97.5238C273.184 102.13 267.912 105.961 263.993 103.114L242.939 87.8171C241.186 86.5439 238.814 86.5439 237.061 87.8171L216.007 103.114C212.088 105.961 206.816 102.13 208.313 97.5238L216.355 72.773C217.024 70.7129 216.291 68.4561 214.538 67.1829L193.484 51.886C189.565 49.039 191.579 42.8409 196.423 42.8409H222.447C224.614 42.8409 226.533 41.4461 227.203 39.386L235.245 14.6352Z" fill="#D9D9D9"/>
</mask>
<g mask="url(#mask9_124_558)">
<path d="M240 0C253.093 1.56134e-07 265.85 4.14501 276.443 11.841L240 62V0Z" fill="#F8C25D"/>
</g>
<mask id="mask10_124_558" style="mask-type:alpha" maskUnits="userSpaceOnUse" x="191" y="11" width="98" height="94">
<path d="M235.245 14.6352C236.741 10.0287 243.259 10.0287 244.755 14.6353L252.797 39.386C253.467 41.4461 255.386 42.8409 257.553 42.8409H283.577C288.421 42.8409 290.435 49.039 286.516 51.886L265.462 67.1829C263.709 68.4561 262.976 70.7129 263.645 72.773L271.687 97.5238C273.184 102.13 267.912 105.961 263.993 103.114L242.939 87.8171C241.186 86.5439 238.814 86.5439 237.061 87.8171L216.007 103.114C212.088 105.961 206.816 102.13 208.313 97.5238L216.355 72.773C217.024 70.7129 216.291 68.4561 214.538 67.1829L193.484 51.886C189.565 49.039 191.579 42.8409 196.423 42.8409H222.447C224.614 42.8409 226.533 41.4461 227.203 39.386L235.245 14.6352Z" fill="#D9D9D9"/>
</mask>
<g mask="url(#mask10_124_558)">
<path d="M276.443 11.841C287.035 19.5369 294.92 30.3887 298.966 42.841L240 62L276.443 11.841Z" fill="#F8AA19"/>
</g>
<mask id="mask11_124_558" style="mask-type:alpha" maskUnits="userSpaceOnUse" x="191" y="11" width="98" height="94">
<path d="M235.245 14.6352C236.741 10.0287 243.259 10.0287 244.755 14.6353L252.797 39.386C253.467 41.4461 255.386 42.8409 257.553 42.8409H283.577C288.421 42.8409 290.435 49.039 286.516 51.886L265.462 67.1829C263.709 68.4561 262.976 70.7129 263.645 72.773L271.687 97.5238C273.184 102.13 267.912 105.961 263.993 103.114L242.939 87.8171C241.186 86.5439 238.814 86.5439 237.061 87.8171L216.007 103.114C212.088 105.961 206.816 102.13 208.313 97.5238L216.355 72.773C217.024 70.7129 216.291 68.4561 214.538 67.1829L193.484 51.886C189.565 49.039 191.579 42.8409 196.423 42.8409H222.447C224.614 42.8409 226.533 41.4461 227.203 39.386L235.245 14.6352Z" fill="#D9D9D9"/>
</mask>
<g mask="url(#mask11_124_558)">
<path d="M298.966 42.841C303.011 55.2932 303.011 68.7068 298.965 81.1591L240 62L298.966 42.841Z" fill="#F8C25D"/>
</g>
<mask id="mask12_124_558" style="mask-type:alpha" maskUnits="userSpaceOnUse" x="191" y="11" width="98" height="94">
<path d="M235.245 14.6352C236.741 10.0287 243.259 10.0287 244.755 14.6353L252.797 39.386C253.467 41.4461 255.386 42.8409 257.553 42.8409H283.577C288.421 42.8409 290.435 49.039 286.516 51.886L265.462 67.1829C263.709 68.4561 262.976 70.7129 263.645 72.773L271.687 97.5238C273.184 102.13 267.912 105.961 263.993 103.114L242.939 87.8171C241.186 86.5439 238.814 86.5439 237.061 87.8171L216.007 103.114C212.088 105.961 206.816 102.13 208.313 97.5238L216.355 72.773C217.024 70.7129 216.291 68.4561 214.538 67.1829L193.484 51.886C189.565 49.039 191.579 42.8409 196.423 42.8409H222.447C224.614 42.8409 226.533 41.4461 227.203 39.386L235.245 14.6352Z" fill="#D9D9D9"/>
</mask>
<g mask="url(#mask12_124_558)">
<path d="M298.966 81.1591C294.92 93.6114 287.035 104.463 276.443 112.159L240 62L298.966 81.1591Z" fill="#F8AA19"/>
</g>
<mask id="mask13_124_558" style="mask-type:alpha" maskUnits="userSpaceOnUse" x="191" y="11" width="98" height="94">
<path d="M235.245 14.6352C236.741 10.0287 243.259 10.0287 244.755 14.6353L252.797 39.386C253.467 41.4461 255.386 42.8409 257.553 42.8409H283.577C288.421 42.8409 290.435 49.039 286.516 51.886L265.462 67.1829C263.709 68.4561 262.976 70.7129 263.645 72.773L271.687 97.5238C273.184 102.13 267.912 105.961 263.993 103.114L242.939 87.8171C241.186 86.5439 238.814 86.5439 237.061 87.8171L216.007 103.114C212.088 105.961 206.816 102.13 208.313 97.5238L216.355 72.773C217.024 70.7129 216.291 68.4561 214.538 67.1829L193.484 51.886C189.565 49.039 191.579 42.8409 196.423 42.8409H222.447C224.614 42.8409 226.533 41.4461 227.203 39.386L235.245 14.6352Z" fill="#D9D9D9"/>
</mask>
<g mask="url(#mask13_124_558)">
<path d="M276.443 112.159C265.85 119.855 253.093 124 240 124L240 62L276.443 112.159Z" fill="#F8C25D"/>
</g>
<mask id="mask14_124_558" style="mask-type:alpha" maskUnits="userSpaceOnUse" x="191" y="11" width="98" height="94">
<path d="M235.245 14.6352C236.741 10.0287 243.259 10.0287 244.755 14.6353L252.797 39.386C253.467 41.4461 255.386 42.8409 257.553 42.8409H283.577C288.421 42.8409 290.435 49.039 286.516 51.886L265.462 67.1829C263.709 68.4561 262.976 70.7129 263.645 72.773L271.687 97.5238C273.184 102.13 267.912 105.961 263.993 103.114L242.939 87.8171C241.186 86.5439 238.814 86.5439 237.061 87.8171L216.007 103.114C212.088 105.961 206.816 102.13 208.313 97.5238L216.355 72.773C217.024 70.7129 216.291 68.4561 214.538 67.1829L193.484 51.886C189.565 49.039 191.579 42.8409 196.423 42.8409H222.447C224.614 42.8409 226.533 41.4461 227.203 39.386L235.245 14.6352Z" fill="#D9D9D9"/>
</mask>
<g mask="url(#mask14_124_558)">
<path d="M203.557 11.8409C214.15 4.145 226.907 -6.39941e-06 240 0L240 62L203.557 11.8409Z" fill="#F8AA19"/>
</g>
<mask id="mask15_124_558" style="mask-type:alpha" maskUnits="userSpaceOnUse" x="191" y="11" width="98" height="94">
<path d="M235.245 14.6352C236.741 10.0287 243.259 10.0287 244.755 14.6353L252.797 39.386C253.467 41.4461 255.386 42.8409 257.553 42.8409H283.577C288.421 42.8409 290.435 49.039 286.516 51.886L265.462 67.1829C263.709 68.4561 262.976 70.7129 263.645 72.773L271.687 97.5238C273.184 102.13 267.912 105.961 263.993 103.114L242.939 87.8171C241.186 86.5439 238.814 86.5439 237.061 87.8171L216.007 103.114C212.088 105.961 206.816 102.13 208.313 97.5238L216.355 72.773C217.024 70.7129 216.291 68.4561 214.538 67.1829L193.484 51.886C189.565 49.039 191.579 42.8409 196.423 42.8409H222.447C224.614 42.8409 226.533 41.4461 227.203 39.386L235.245 14.6352Z" fill="#D9D9D9"/>
</mask>
<g mask="url(#mask15_124_558)">
<path d="M240 124C226.907 124 214.15 119.855 203.557 112.159L240 62L240 124Z" fill="#F8AA19"/>
</g>
<mask id="mask16_124_558" style="mask-type:alpha" maskUnits="userSpaceOnUse" x="191" y="11" width="98" height="94">
<path d="M235.245 14.6352C236.741 10.0287 243.259 10.0287 244.755 14.6353L252.797 39.386C253.467 41.4461 255.386 42.8409 257.553 42.8409H283.577C288.421 42.8409 290.435 49.039 286.516 51.886L265.462 67.1829C263.709 68.4561 262.976 70.7129 263.645 72.773L271.687 97.5238C273.184 102.13 267.912 105.961 263.993 103.114L242.939 87.8171C241.186 86.5439 238.814 86.5439 237.061 87.8171L216.007 103.114C212.088 105.961 206.816 102.13 208.313 97.5238L216.355 72.773C217.024 70.7129 216.291 68.4561 214.538 67.1829L193.484 51.886C189.565 49.039 191.579 42.8409 196.423 42.8409H222.447C224.614 42.8409 226.533 41.4461 227.203 39.386L235.245 14.6352Z" fill="#D9D9D9"/>
</mask>
<g mask="url(#mask16_124_558)">
<path d="M203.557 112.159C192.965 104.463 185.08 93.6113 181.034 81.159L240 62L203.557 112.159Z" fill="#F8C25D"/>
</g>
<mask id="mask17_124_558" style="mask-type:alpha" maskUnits="userSpaceOnUse" x="191" y="11" width="98" height="94">
<path d="M235.245 14.6352C236.741 10.0287 243.259 10.0287 244.755 14.6353L252.797 39.386C253.467 41.4461 255.386 42.8409 257.553 42.8409H283.577C288.421 42.8409 290.435 49.039 286.516 51.886L265.462 67.1829C263.709 68.4561 262.976 70.7129 263.645 72.773L271.687 97.5238C273.184 102.13 267.912 105.961 263.993 103.114L242.939 87.8171C241.186 86.5439 238.814 86.5439 237.061 87.8171L216.007 103.114C212.088 105.961 206.816 102.13 208.313 97.5238L216.355 72.773C217.024 70.7129 216.291 68.4561 214.538 67.1829L193.484 51.886C189.565 49.039 191.579 42.8409 196.423 42.8409H222.447C224.614 42.8409 226.533 41.4461 227.203 39.386L235.245 14.6352Z" fill="#D9D9D9"/>
</mask>
<g mask="url(#mask17_124_558)">
<path d="M181.034 81.1591C176.988 68.7068 176.989 55.2932 181.035 42.8409L240 62L181.034 81.1591Z" fill="#F8AA19"/>
</g>
<mask id="mask18_124_558" style="mask-type:alpha" maskUnits="userSpaceOnUse" x="191" y="11" width="98" height="94">
<path d="M235.245 14.6352C236.741 10.0287 243.259 10.0287 244.755 14.6353L252.797 39.386C253.467 41.4461 255.386 42.8409 257.553 42.8409H283.577C288.421 42.8409 290.435 49.039 286.516 51.886L265.462 67.1829C263.709 68.4561 262.976 70.7129 263.645 72.773L271.687 97.5238C273.184 102.13 267.912 105.961 263.993 103.114L242.939 87.8171C241.186 86.5439 238.814 86.5439 237.061 87.8171L216.007 103.114C212.088 105.961 206.816 102.13 208.313 97.5238L216.355 72.773C217.024 70.7129 216.291 68.4561 214.538 67.1829L193.484 51.886C189.565 49.039 191.579 42.8409 196.423 42.8409H222.447C224.614 42.8409 226.533 41.4461 227.203 39.386L235.245 14.6352Z" fill="#D9D9D9"/>
</mask>
<g mask="url(#mask18_124_558)">
<path d="M181.034 42.8409C185.08 30.3887 192.965 19.5369 203.557 11.8409L240 62L181.034 42.8409Z" fill="#F8C25D"/>
</g>
<g filter="url(#filter0_d_124_558)">
<path d="M61.6035 525.663C62.213 523.843 64.787 523.843 65.3965 525.663L66.1419 527.889C66.4129 528.698 67.1672 529.246 68.0204 529.253L70.3676 529.274C72.2867 529.292 73.0821 531.74 71.5397 532.882L69.6532 534.279C68.9675 534.786 68.6793 535.673 68.9357 536.487L69.6409 538.726C70.2175 540.556 68.1351 542.069 66.5724 540.955L64.661 539.593C63.9662 539.097 63.0338 539.097 62.339 539.593L60.4276 540.955C58.8649 542.069 56.7825 540.556 57.3591 538.726L58.0643 536.487C58.3207 535.673 58.0325 534.786 57.3468 534.279L55.4603 532.882C53.9179 531.74 54.7133 529.292 56.6324 529.274L58.9796 529.253C59.8328 529.246 60.5871 528.698 60.8581 527.889L61.6035 525.663Z" fill="#FF9137"/>
</g>
<g filter="url(#filter1_d_124_558)">
<path d="M286.604 375.663C287.213 373.843 289.787 373.843 290.396 375.663L291.142 377.889C291.413 378.698 292.167 379.246 293.02 379.253L295.368 379.274C297.287 379.292 298.082 381.74 296.54 382.882L294.653 384.279C293.967 384.786 293.679 385.673 293.936 386.487L294.641 388.726C295.218 390.556 293.135 392.069 291.572 390.955L289.661 389.593C288.966 389.097 288.034 389.097 287.339 389.593L285.428 390.955C283.865 392.069 281.782 390.556 282.359 388.726L283.064 386.487C283.321 385.673 283.033 384.786 282.347 384.279L280.46 382.882C278.918 381.74 279.713 379.292 281.632 379.274L283.98 379.253C284.833 379.246 285.587 378.698 285.858 377.889L286.604 375.663Z" fill="#FFB937"/>
</g>
<g filter="url(#filter2_d_124_558)">
<path d="M372.604 479.663C373.213 477.843 375.787 477.843 376.396 479.663L377.142 481.889C377.413 482.698 378.167 483.246 379.02 483.253L381.368 483.274C383.287 483.292 384.082 485.74 382.54 486.882L380.653 488.279C379.967 488.786 379.679 489.673 379.936 490.487L380.641 492.726C381.218 494.556 379.135 496.069 377.572 494.955L375.661 493.593C374.966 493.097 374.034 493.097 373.339 493.593L371.428 494.955C369.865 496.069 367.782 494.556 368.359 492.726L369.064 490.487C369.321 489.673 369.033 488.786 368.347 488.279L366.46 486.882C364.918 485.74 365.713 483.292 367.632 483.274L369.98 483.253C370.833 483.246 371.587 482.698 371.858 481.889L372.604 479.663Z" fill="#FF7337"/>
</g>
<g filter="url(#filter3_d_124_558)">
<path d="M212.604 246.663C213.213 244.843 215.787 244.843 216.396 246.663L217.142 248.889C217.413 249.698 218.167 250.246 219.02 250.253L221.368 250.274C223.287 250.292 224.082 252.74 222.54 253.882L220.653 255.279C219.967 255.786 219.679 256.673 219.936 257.487L220.641 259.726C221.218 261.556 219.135 263.069 217.572 261.955L215.661 260.593C214.966 260.097 214.034 260.097 213.339 260.593L211.428 261.955C209.865 263.069 207.782 261.556 208.359 259.726L209.064 257.487C209.321 256.673 209.033 255.786 208.347 255.279L206.46 253.882C204.918 252.74 205.713 250.292 207.632 250.274L209.98 250.253C210.833 250.246 211.587 249.698 211.858 248.889L212.604 246.663Z" fill="#37FFE8"/>
</g>
<defs>
<filter id="filter0_d_124_558" x="50.6465" y="520.298" width="25.707" height="25.0376" filterUnits="userSpaceOnUse" color-interpolation-filters="sRGB">
<feFlood flood-opacity="0" result="BackgroundImageFix"/>
<feColorMatrix in="SourceAlpha" type="matrix" values="0 0 0 0 0 0 0 0 0 0 0 0 0 0 0 0 0 0 127 0" result="hardAlpha"/>
<feOffset/>
<feGaussianBlur stdDeviation="2"/>
<feComposite in2="hardAlpha" operator="out"/>
<feColorMatrix type="matrix" values="0 0 0 0 1 0 0 0 0 0.568627 0 0 0 0 0.215686 0 0 0 1 0"/>
<feBlend mode="normal" in2="BackgroundImageFix" result="effect1_dropShadow_124_558"/>
<feBlend mode="normal" in="SourceGraphic" in2="effect1_dropShadow_124_558" result="shape"/>
</filter>
<filter id="filter1_d_124_558" x="275.646" y="370.298" width="25.707" height="25.0376" filterUnits="userSpaceOnUse" color-interpolation-filters="sRGB">
<feFlood flood-opacity="0" result="BackgroundImageFix"/>
<feColorMatrix in="SourceAlpha" type="matrix" values="0 0 0 0 0 0 0 0 0 0 0 0 0 0 0 0 0 0 127 0" result="hardAlpha"/>
<feOffset/>
<feGaussianBlur stdDeviation="2"/>
<feComposite in2="hardAlpha" operator="out"/>
<feColorMatrix type="matrix" values="0 0 0 0 1 0 0 0 0 0.72549 0 0 0 0 0.215686 0 0 0 1 0"/>
<feBlend mode="normal" in2="BackgroundImageFix" result="effect1_dropShadow_124_558"/>
<feBlend mode="normal" in="SourceGraphic" in2="effect1_dropShadow_124_558" result="shape"/>
</filter>
<filter id="filter2_d_124_558" x="361.646" y="474.298" width="25.707" height="25.0376" filterUnits="userSpaceOnUse" color-interpolation-filters="sRGB">
<feFlood flood-opacity="0" result="BackgroundImageFix"/>
<feColorMatrix in="SourceAlpha" type="matrix" values="0 0 0 0 0 0 0 0 0 0 0 0 0 0 0 0 0 0 127 0" result="hardAlpha"/>
<feOffset/>
<feGaussianBlur stdDeviation="2"/>
<feComposite in2="hardAlpha" operator="out"/>
<feColorMatrix type="matrix" values="0 0 0 0 1 0 0 0 0 0.45098 0 0 0 0 0.215686 0 0 0 1 0"/>
<feBlend mode="normal" in2="BackgroundImageFix" result="effect1_dropShadow_124_558"/>
<feBlend mode="normal" in="SourceGraphic" in2="effect1_dropShadow_124_558" result="shape"/>
</filter>
<filter id="filter3_d_124_558" x="201.646" y="241.298" width="25.707" height="25.0376" filterUnits="userSpaceOnUse" color-interpolation-filters="sRGB">
<feFlood flood-opacity="0" result="BackgroundImageFix"/>
<feColorMatrix in="SourceAlpha" type="matrix" values="0 0 0 0 0 0 0 0 0 0 0 0 0 0 0 0 0 0 127 0" result="hardAlpha"/>
<feOffset/>
<feGaussianBlur stdDeviation="2"/>
<feComposite in2="hardAlpha" operator="out"/>
<feColorMatrix type="matrix" values="0 0 0 0 0.215686 0 0 0 0 1 0 0 0 0 0.909804 0 0 0 1 0"/>
<feBlend mode="normal" in2="BackgroundImageFix" result="effect1_dropShadow_124_558"/>
<feBlend mode="normal" in="SourceGraphic" in2="effect1_dropShadow_124_558" result="shape"/>
</filter>
</defs>
</svg>
