<svg width="547" height="741" viewBox="0 0 547 741" fill="none" xmlns="http://www.w3.org/2000/svg">
<path d="M235 581C219.656 632.181 215.206 662.267 213.5 718C263.969 747.953 291.998 747.097 341.5 718C340.754 664.441 337.099 634.453 327.5 581H235Z" fill="#835353" stroke="#835353"/>
<path d="M74.9192 414C42.1335 467.395 26.5494 497.776 8.4192 553.5C-7.40931 583.527 -0.788567 589.712 39.9192 581.5C47.4921 621.421 62.8025 616.943 97.9192 590C110.069 649.626 124.155 655.291 166.419 600C182.271 671.295 197.256 669.074 232.419 606.5C270.606 672.911 290.968 668.23 325.919 606.5C358.756 665.99 373.91 665.238 394.919 600C436.059 652.598 449.998 649.422 459.919 590C494.016 621.27 507.829 620.948 520.919 581.5C543.791 598.196 549.108 594.551 545.419 565.5C529.812 503.349 516.727 469.14 487.419 409L74.9192 414Z" fill="#298800" stroke="#298800"/>
<path d="M126.981 283H444.981C476.074 312.498 489.903 331.104 505.481 369.5C522.384 409.548 518.796 421.562 472.981 411.5C471.122 460.506 454.379 464.862 397.481 431C384.755 491.309 368.668 491.942 322.981 431C298.005 491.773 282.486 495.645 251.481 436C208.7 490.311 192.7 486.114 176.981 423C124.734 462.096 104.491 466.982 102.481 411.5C61.3397 422.418 53.2632 413.944 68.9814 369.5C85.3516 334.195 98.5876 315.389 126.981 283Z" fill="#B1ECA5" stroke="#B1ECA5"/>
<path d="M225.19 127.012C268.309 72.5148 294.498 74.8231 344.19 127.012C386.317 170.387 406.488 197.01 438.69 247.012C463.374 291.24 457.752 298.717 416.69 284.512C432.737 325.309 419.816 327.11 362.19 297.012C359.874 355.009 349.485 357.633 316.19 314.012C286.594 355.416 271.378 371.247 260.19 314.012C215.807 357.259 202.209 356.053 203.19 297.012C148.122 326.993 136.572 323.65 147.69 284.512C109.419 290.68 101.5 284.577 128.19 247.012C161.938 196.228 182.415 169.232 225.19 127.012Z" fill="#298800" stroke="#298800"/>
<path d="M280.891 23.4164C283.286 16.0459 293.713 16.0459 296.108 23.4164L304.44 49.0598C305.511 52.356 308.583 54.5877 312.048 54.5877L339.012 54.5877C346.761 54.5877 349.983 64.5046 343.714 69.0598L321.9 84.9083C319.096 86.9454 317.923 90.5564 318.994 93.8525L327.326 119.496C329.721 126.866 321.285 132.995 315.015 128.44L293.202 112.592C290.398 110.555 286.601 110.555 283.797 112.592L261.984 128.44C255.714 132.995 247.278 126.866 249.673 119.496L258.005 93.8525C259.076 90.5564 257.903 86.9454 255.099 84.9083L233.285 69.0598C227.016 64.5046 230.238 54.5877 237.988 54.5877L264.951 54.5877C268.416 54.5877 271.488 52.356 272.559 49.0598L280.891 23.4164Z" fill="#FFB937"/>
</svg>
